<svg width="63" height="63" viewBox="0 0 63 63" fill="none" xmlns="http://www.w3.org/2000/svg">
<path d="M23.0165 11.1063C16.0625 11.0963 10.5046 17.0501 11.1764 24.1422C11.7621 30.3508 17.1779 35.0094 23.4139 35.0184L39.8632 35.042C42.4205 35.0457 44.7872 37.1224 44.916 39.6759C45.0613 42.544 42.7776 44.9165 39.9419 44.9084L24.1623 44.8857C22.2261 44.883 20.6552 46.4538 20.658 48.39C20.6608 50.3261 22.2362 51.9015 24.1723 51.9043L39.7342 51.9267C45.9702 51.9357 51.3565 47.2845 51.9002 41.0775C52.5193 33.9873 46.9362 28.0256 39.9741 28.0156L23.1296 27.9913C20.3786 27.9874 18.1407 25.7495 18.1368 22.9986C18.1329 20.3041 20.32 18.117 23.0145 18.1208L38.8668 18.1436C40.8029 18.1464 42.3738 16.5756 42.371 14.6394C42.3682 12.7033 40.7928 11.1279 38.8567 11.1251L23.0125 11.1023L23.0165 11.1063Z" fill="url(#paint0_linear_75_35892)"/>
<path d="M46.0911 17.4542C47.5973 18.9604 50.0394 18.9604 51.5456 17.4542C53.0519 15.9479 53.0519 13.5058 51.5456 11.9996C50.0394 10.4934 47.5973 10.4934 46.0911 11.9996C44.5849 13.5058 44.5849 15.9479 46.0911 17.4542Z" fill="#009DFF"/>
<path d="M11.0451 51.1363C12.6266 52.7178 15.1908 52.7178 16.7723 51.1363C18.3539 49.5547 18.3539 46.9905 16.7723 45.409C15.1908 43.8274 12.6266 43.8274 11.0451 45.409C9.46351 46.9905 9.46351 49.5547 11.0451 51.1363Z" fill="#00FFAE"/>
<defs>
<linearGradient id="paint0_linear_75_35892" x1="46.0907" y1="16.9091" x2="16.9089" y2="46.0909" gradientUnits="userSpaceOnUse">
<stop stop-color="#009DFF"/>
<stop offset="1" stop-color="#00FFAE"/>
</linearGradient>
</defs>
</svg>
