<svg width="77" height="25" viewBox="0 0 77 25" fill="none" xmlns="http://www.w3.org/2000/svg">
<path d="M4.57552 18.0744C4.57552 17.347 4.5662 16.6196 4.57863 15.8953C4.58485 15.5503 4.47294 15.3731 4.12479 15.2456C2.41202 14.6239 1.28054 13.4365 0.826698 11.6616C0.121073 8.91056 1.8525 6.10671 4.62526 5.46325C7.53479 4.78871 10.292 6.53568 10.9168 9.44521C11.4359 11.8667 10.0496 14.31 7.60007 15.2177C7.18664 15.37 7.06541 15.572 7.06852 15.9855C7.08717 17.4185 7.07785 18.8546 7.07474 20.2876C7.07474 20.8658 7.03744 20.8968 6.48102 20.9062C6.05205 20.9124 5.62308 20.9124 5.19411 20.9062C4.62215 20.9 4.58485 20.8658 4.57863 20.3093C4.57241 19.5633 4.57863 18.8204 4.57863 18.0744H4.57552ZM5.81891 13.0417C7.33274 13.0417 8.47045 11.9071 8.50153 10.4026C8.52951 9.05976 7.34207 7.72001 5.81891 7.76974C4.31441 7.81948 3.15495 8.88569 3.14562 10.3373C3.1363 11.8698 4.28954 13.0355 5.81891 13.0386V13.0417Z" fill="#F1F1F1"/>
<path d="M66.3286 19.7C66.3348 17.6484 67.1305 16.3055 68.5138 15.2766C68.8993 14.9906 68.9086 15.0031 68.5356 14.7326C66.1918 13.0354 65.6323 9.92691 67.2425 7.5396C68.6009 5.5222 71.3643 4.76684 73.5962 5.80507C74.0044 5.99365 74.3588 5.91179 74.6593 5.5595C75.4084 4.68291 75.4146 4.67669 76.2135 5.49111C76.5119 5.79264 76.9906 6.12214 77 6.44542C77.0062 6.75937 76.5368 7.11063 76.2291 7.3935C75.912 7.6857 75.912 7.9406 76.0861 8.32294C77.1336 10.6201 76.4373 13.225 74.392 14.686C74.0376 14.9378 74.0998 15.0248 74.4137 15.2517C76.9565 17.064 77.4196 20.2719 75.5079 22.7121C73.4812 25.2983 69.2847 25.2113 67.345 22.5473C66.6643 21.6117 66.2882 20.5828 66.3317 19.7062L66.3286 19.7ZM71.414 7.78206C69.9593 7.77895 68.7252 8.96328 68.7656 10.446C68.8029 11.9008 69.8194 13.0945 71.414 13.1411C72.8564 13.1815 74.0842 11.9132 74.0811 10.4243C74.078 8.94153 72.9092 7.78517 71.414 7.78206ZM71.5384 16.8557C70.0121 16.8433 68.8433 17.9685 68.8402 19.4606C68.834 20.9278 69.9841 22.0904 71.4513 22.1028C72.9279 22.1121 74.1681 20.9216 74.1713 19.4917C74.1744 18.0463 72.9994 16.8713 71.5384 16.8588V16.8557Z" fill="#F1F1F1"/>
<path d="M29.434 12.6003C29.434 13.4023 29.4247 14.2043 29.4371 15.0063C29.4433 15.3855 29.2879 15.5471 28.9025 15.5316C28.3802 15.5129 27.858 15.5191 27.3358 15.5316C27.0001 15.5378 26.8602 15.3793 26.8664 15.0591C26.8975 13.2717 26.8105 11.4719 26.9907 9.69697C27.1897 7.71376 28.4144 6.37711 30.2609 5.65906C30.7489 5.46944 30.9074 5.21765 30.895 4.71408C30.8639 3.52042 30.8857 2.32677 30.895 1.13311C30.895 0.573585 30.9416 0.533175 31.5012 0.52385C31.9301 0.517633 32.3591 0.530067 32.7881 0.517633C33.1362 0.508307 33.273 0.617104 33.273 1.00256C33.273 2.30501 33.332 3.61057 33.3383 4.91302C33.3383 5.31712 33.503 5.49742 33.876 5.63419C35.9929 6.40509 37.2767 8.27018 37.2798 10.5331C37.2798 11.9879 37.2829 13.4427 37.2798 14.8975C37.2798 15.4881 37.2363 15.5223 36.6364 15.5285C36.226 15.5316 35.8157 15.5347 35.4054 15.5285C34.8148 15.5191 34.7868 15.4943 34.7837 14.8788C34.7806 13.4613 34.7868 12.0439 34.7806 10.6264C34.7744 9.81198 34.5288 9.09392 33.9195 8.51264C33.0803 7.71376 32.0855 7.56766 31.0691 7.97487C30.065 8.37587 29.462 9.16853 29.4433 10.3062C29.4309 11.0709 29.4433 11.8356 29.4433 12.6003C29.4402 12.6003 29.4371 12.6003 29.434 12.6003Z" fill="#F1F1F1"/>
<path d="M50.4132 10.4461C50.4287 11.2512 50.2142 12.0003 49.863 12.709C49.7231 12.9888 49.7448 13.1909 49.978 13.3991C50.2391 13.6354 50.4784 13.8996 50.7364 14.1452C50.9229 14.3223 50.9261 14.4871 50.7364 14.6674C50.323 15.0715 49.9096 15.4756 49.5055 15.8859C49.2941 16.1004 49.1294 16.0444 48.9397 15.8548C48.6879 15.6061 48.4051 15.3886 48.1595 15.1337C47.9481 14.913 47.7647 14.8788 47.4756 15.0155C43.8947 16.7159 39.8878 14.055 40.0588 10.101C40.1645 7.66709 42.3156 5.50359 44.8055 5.32641C47.5502 5.13057 49.7946 6.82159 50.3261 9.50109C50.3883 9.80883 50.3883 10.129 50.4163 10.443L50.4132 10.4461ZM45.2251 7.78521C43.8232 7.66087 42.5953 8.82345 42.5549 10.4057C42.5176 11.8262 43.7859 13.0354 45.2531 13.0354C46.7203 13.0354 47.858 11.8791 47.8984 10.4181C47.9295 9.25552 46.885 7.68885 45.2251 7.7821V7.78521Z" fill="#F1F1F1"/>
<path d="M18.9926 15.5285C16.0862 15.5285 13.7549 13.2686 13.7642 10.4523C13.7704 7.60495 16.1049 5.34508 19.0082 5.31089C21.582 5.2798 24.1247 7.3687 24.1372 10.4274C24.1496 13.2468 21.8245 15.5254 18.9926 15.5285ZM18.9585 7.78524C17.4322 7.78524 16.2758 8.90429 16.2634 10.4026C16.251 11.8232 17.4944 13.0386 18.9616 13.0386C20.4536 13.0386 21.5913 11.9133 21.5944 10.4337C21.5976 8.91672 20.4754 7.78835 18.9585 7.78524Z" fill="#F1F1F1"/>
<path d="M60.9944 12.5444C60.9944 11.7983 61.0069 11.0523 60.9944 10.3094C60.9665 8.88257 59.8008 7.78839 58.3305 7.7915C56.8881 7.79772 55.7566 8.88257 55.738 10.3125C55.7225 11.8232 55.738 13.3308 55.7349 14.8415C55.7349 15.5036 55.7069 15.5254 55.0355 15.5285C54.5692 15.5285 54.1029 15.5223 53.6367 15.5285C53.3445 15.5316 53.1673 15.4228 53.1735 15.112C53.1921 13.3805 53.1517 11.646 53.2512 9.9177C53.3755 7.77285 55.051 5.99169 57.2238 5.48501C60.4163 4.73897 63.4688 7.07033 63.562 10.3622C63.6056 11.8885 63.5745 13.4178 63.5683 14.9472C63.5683 15.4725 63.5123 15.5192 62.9839 15.5254C62.4989 15.5316 62.014 15.513 61.5291 15.5316C61.1436 15.5472 60.9913 15.3824 60.9975 15.0032C61.01 14.1825 61.0006 13.3619 61.0006 12.5444H60.9975H60.9944Z" fill="#F1F1F1"/>
</svg>
