<svg width="66" height="18" viewBox="0 0 66 18" fill="none" xmlns="http://www.w3.org/2000/svg">
<path d="M52.1162 8.40483C51.2001 10.9574 49.0224 12.5307 46.2233 12.5307C42.7578 12.5307 40.0338 9.90362 40.0338 6.39218C40.0338 2.88073 42.7578 0.253662 46.2233 0.253662C49.0956 0.253662 51.4967 2.04662 52.2645 4.57501C52.4128 5.26203 52.1894 5.33651 51.8196 5.40912C51.4235 5.48359 50.8302 5.40912 50.4585 5.18756C50.0624 4.966 49.4673 4.13189 49.4673 4.13189C48.799 3.00175 47.5862 2.33893 46.2233 2.33893C44.0437 2.33893 42.2134 4.2045 42.2134 6.39031C42.2134 8.57612 44.0456 10.4175 46.2233 10.4175C47.7345 10.4175 48.9473 9.60759 49.6888 8.40483C49.6888 8.40483 50.0605 7.74202 50.9767 7.49625C51.9679 7.27469 52.1894 7.57072 52.1894 7.57072C52.1894 7.57072 52.4128 7.6452 52.1143 8.40483H52.1162Z" fill="#F1F1F1"/>
<path d="M20.0169 2.34079C22.2027 2.34079 23.9938 4.20637 23.9938 6.39218C23.9938 8.57798 22.2008 10.4194 20.0169 10.4194V12.5307C23.478 12.5307 26.1554 9.90362 26.1554 6.39218C26.1554 2.88073 23.4799 0.253662 20.0169 0.253662V2.34079ZM20.0169 10.4194C17.8553 10.4194 16.0642 8.55378 16.0642 6.39218C16.0642 4.23057 17.8571 2.34079 20.0169 2.34079V0.253662C16.5799 0.253662 13.8784 2.85653 13.8784 6.39218C13.8784 9.92782 16.5799 12.5307 20.0169 12.5307V10.4194Z" fill="#F1F1F1"/>
<path d="M59.5169 2.34079C61.6785 2.34079 63.4696 4.20637 63.4696 6.39218C63.4696 8.57798 61.6766 10.4194 59.5169 10.4194V12.5307C62.9538 12.5307 65.6554 9.90362 65.6554 6.39218C65.6554 2.88073 62.9538 0.253662 59.5169 0.253662V2.34079ZM59.5169 2.34079V0.253662C56.0538 0.253662 53.3784 2.85653 53.3784 6.39218C53.3784 9.92782 56.0538 12.5307 59.5169 12.5307V10.4194C57.3311 10.4194 55.5381 8.55378 55.5381 6.39218C55.5381 4.23057 57.3311 2.34079 59.5169 2.34079Z" fill="#F1F1F1"/>
<path d="M35.8275 7.4943C36.5917 7.56876 36.7393 7.88705 36.517 8.47709C36.0742 9.60693 34.4972 10.4892 33.0679 10.4892C31.4162 10.4892 30.5792 9.67952 29.914 8.99082C29.2974 8.32819 28.0904 8.25373 27.7205 8.40264C27.3505 8.54969 27.4981 9.13973 27.6458 9.45802C28.7051 11.3975 30.8744 12.5274 32.9932 12.5274C35.2353 12.6 37.1821 11.472 38.3891 9.60693C39.5233 7.74186 39.0543 5.40959 36.3694 5.40959L30.3568 5.337C29.445 5.337 29.3703 4.82141 29.5926 4.20716C30.2092 3.10338 31.5638 2.26764 33.2155 2.26764C34.8672 2.26764 35.6052 3.25043 36.147 3.76416C36.7375 4.27976 37.8716 4.4268 38.3891 4.2053C38.6843 4.05826 38.6115 3.68971 38.3891 3.24857C37.4045 1.35744 35.2353 0.253662 33.066 0.253662C31.1696 0.253662 29.0751 1.06335 27.7934 3.00287C26.7583 4.6725 26.833 7.42171 30.5773 7.42171L35.8257 7.4943H35.8275Z" fill="#F1F1F1"/>
<path d="M6.14087 12.5606C9.57652 12.5606 12.277 9.92709 12.277 6.40711C12.277 2.88712 9.57838 0.253662 6.14087 0.253662V2.34587C8.30165 2.34587 10.0921 4.14319 10.0921 6.40711C10.0921 8.67102 8.29978 10.4441 6.14087 10.4441V12.5606ZM6.14087 0.253662C2.68102 0.253662 0.00471155 2.86286 0.00471155 6.40711V14.5538C0.00471155 14.5538 -0.0697338 15.6121 0.373216 16.3512C0.74172 16.8682 1.28145 17.262 1.79698 17.3347C2.16549 17.262 2.23807 16.7935 2.23807 16.7935V11.2056C3.29333 12.0174 4.64266 12.5587 6.14087 12.5587V10.4422C3.9559 10.4422 2.16549 8.5721 2.16549 6.40524C2.16549 4.23838 3.95776 2.344 6.14087 2.344V0.253662Z" fill="#F1F1F1"/>
</svg>
